<?xml version="1.0" encoding="utf-8"?>
<!-- Generator: Adobe Illustrator 22.0.1, SVG Export Plug-In . SVG Version: 6.00 Build 0)  -->
<svg version="1.1" id="Layer_1" xmlns="http://www.w3.org/2000/svg" xmlns:xlink="http://www.w3.org/1999/xlink" x="0px" y="0px"
	 viewBox="0 0 433.4 120" style="enable-background:new 0 0 433.4 120;" xml:space="preserve">
<style type="text/css">
	.st0{fill:#202A5B;}
	.st1{fill:#4373B9;}
</style>
<g>
	<g>
		<path class="st0" d="M147.1,36.1h-6.3v14.4h-8.6V10.3h18.8c8.4,0,13.5,5.5,13.5,13c0,7.1-4.5,10.9-8.8,12l9.1,15.3H155L147.1,36.1
			z M149.8,17.6h-9v11.1h9c3.4,0,6-2.2,6-5.6C155.8,19.8,153.2,17.6,149.8,17.6z"/>
		<path class="st0" d="M181.7,20.7c8.7,0,14.6,6.5,14.6,16.1v1.7h-21.7c0.5,3.7,3.4,6.8,8.4,6.8c2.7,0,5.9-1.1,7.8-2.9l3.4,5
			c-2.9,2.7-7.5,4-12,4c-8.9,0-15.6-6-15.6-15.3C166.6,27.5,172.8,20.7,181.7,20.7z M174.5,33.2h14.4c-0.2-2.8-2.1-6.5-7.2-6.5
			C176.9,26.8,174.9,30.3,174.5,33.2z"/>
		<path class="st0" d="M202.7,41.4c2.1,2,6.5,4,10.1,4c3.3,0,4.9-1.2,4.9-3c0-2.1-2.5-2.8-5.9-3.4c-5-1-11.5-2.2-11.5-9.1
			c0-4.9,4.3-9.2,12-9.2c5,0,8.9,1.7,11.8,4l-3.1,5.3c-1.8-1.9-5.1-3.4-8.6-3.4c-2.8,0-4.6,1-4.6,2.7c0,1.8,2.3,2.5,5.6,3.1
			c5,1,11.7,2.3,11.7,9.5c0,5.3-4.5,9.4-12.6,9.4c-5.1,0-10-1.7-13-4.5L202.7,41.4z"/>
		<path class="st0" d="M230.3,61.7V21.4h7.7v3.7c2.2-2.8,5.4-4.4,9-4.4c7.5,0,12.9,5.6,12.9,15.3s-5.4,15.3-12.9,15.3
			c-3.4,0-6.6-1.4-9-4.5v14.9H230.3z M244.5,27.5c-2.5,0-5.3,1.4-6.6,3.3v10.3c1.3,1.8,4.1,3.3,6.6,3.3c4.4,0,7.4-3.4,7.4-8.5
			C251.9,30.9,249,27.5,244.5,27.5z"/>
		<path class="st0" d="M263.8,35.9c0-8.3,5.8-15.3,15.4-15.3c9.7,0,15.5,7,15.5,15.3c0,8.3-5.8,15.3-15.5,15.3
			C269.6,51.3,263.8,44.3,263.8,35.9z M286.7,35.9c0-4.5-2.7-8.5-7.5-8.5c-4.8,0-7.4,3.9-7.4,8.5c0,4.6,2.7,8.5,7.4,8.5
			C283.9,44.4,286.7,40.5,286.7,35.9z"/>
		<path class="st0" d="M319.1,32.9c0-4-2.1-5.4-5.4-5.4c-3,0-5.4,1.7-6.6,3.4v19.6h-7.7V21.4h7.7v3.8c1.9-2.2,5.4-4.5,10.2-4.5
			c6.4,0,9.5,3.6,9.5,9.3v20.6h-7.7V32.9z"/>
		<path class="st0" d="M334.3,41.4c2.1,2,6.5,4,10.1,4c3.3,0,4.9-1.2,4.9-3c0-2.1-2.5-2.8-5.9-3.4c-5-1-11.5-2.2-11.5-9.1
			c0-4.9,4.3-9.2,12-9.2c5,0,8.9,1.7,11.8,4l-3.1,5.3c-1.8-1.9-5.1-3.4-8.6-3.4c-2.8,0-4.6,1-4.6,2.7c0,1.8,2.3,2.5,5.6,3.1
			c5,1,11.7,2.3,11.7,9.5c0,5.3-4.5,9.4-12.6,9.4c-5.1,0-10-1.7-13-4.5L334.3,41.4z"/>
		<path class="st0" d="M360.8,13c0-2.5,2.1-4.6,4.6-4.6c2.5,0,4.6,2.1,4.6,4.6c0,2.5-2.1,4.6-4.6,4.6
			C362.9,17.6,360.8,15.6,360.8,13z M361.6,21.4h7.7v29.2h-7.7V21.4z"/>
		<path class="st0" d="M372.7,21.4h8.2l7.6,20.3l7.6-20.3h8.3l-11.7,29.2h-8.3L372.7,21.4z"/>
		<path class="st0" d="M418.8,20.7c8.7,0,14.6,6.5,14.6,16.1v1.7h-21.7c0.5,3.7,3.4,6.8,8.4,6.8c2.7,0,5.9-1.1,7.8-2.9l3.4,5
			c-2.9,2.7-7.5,4-12,4c-8.9,0-15.6-6-15.6-15.3C403.7,27.5,409.9,20.7,418.8,20.7z M411.6,33.2H426c-0.2-2.8-2.1-6.5-7.2-6.5
			C414,26.8,412,30.3,411.6,33.2z"/>
	</g>
	<g>
		<path class="st0" d="M132.2,64.3h8.6v32.7h17v7.5h-25.6V64.3z"/>
		<path class="st0" d="M179.9,101.6c-2,2.4-5.4,3.7-9.2,3.7c-4.6,0-10.1-3.1-10.1-9.7c0-6.8,5.5-9.3,10.1-9.3c3.9,0,7.3,1.2,9.2,3.6
			v-4c0-3-2.5-4.9-6.4-4.9c-3.1,0-6,1.1-8.5,3.4l-2.9-5.1c3.6-3.1,8.2-4.6,12.7-4.6c6.6,0,12.7,2.7,12.7,11v18.8h-7.7V101.6z
			 M179.9,94c-1.3-1.7-3.7-2.5-6.2-2.5c-3,0-5.5,1.6-5.5,4.4c0,2.7,2.5,4.3,5.5,4.3c2.5,0,4.9-0.8,6.2-2.5V94z"/>
		<path class="st0" d="M196.5,109.6c2,0,3.3-0.5,4-2.1l1.1-2.5l-11.8-29.6h8.2l7.6,20.3l7.6-20.3h8.3l-13.7,33.9
			c-2.2,5.5-6,6.9-11,7.1c-0.9,0-2.8-0.2-3.8-0.4l1.1-6.9C194.7,109.4,195.7,109.6,196.5,109.6z"/>
		<g>
			<path class="st0" d="M221.8,90c0-8.3,5.8-15.3,15.4-15.3c9.7,0,15.5,7,15.5,15.3c0,8.3-5.8,15.3-15.5,15.3
				C227.6,105.3,221.8,98.3,221.8,90z M244.7,90c0-4.5-2.7-8.5-7.5-8.5c-4.8,0-7.4,3.9-7.4,8.5c0,4.6,2.7,8.5,7.4,8.5
				C242,98.5,244.7,94.6,244.7,90z"/>
			<path class="st0" d="M276.5,100.9c-2,2.2-5.5,4.4-10.3,4.4c-6.4,0-9.4-3.5-9.4-9.2V75.4h7.7v17.7c0,4,2.1,5.4,5.4,5.4
				c3,0,5.3-1.6,6.6-3.3V75.4h7.7v29.2h-7.7V100.9z"/>
		</g>
		<path class="st0" d="M293.4,97.4V82.1h-4.8v-6.7h4.8v-8h7.7v8h5.9v6.7h-5.9v13.2c0,1.8,1,3.2,2.7,3.2c1.1,0,2.2-0.4,2.7-0.8
			l1.6,5.8c-1.1,1-3.2,1.9-6.4,1.9C296.3,105.3,293.4,102.5,293.4,97.4z"/>
	</g>
	<g>
		<path class="st1" d="M52,10.9l42.5,24.5v49.1L52,109.1L9.4,84.5V35.5L52,10.9 M52,0l-4.7,2.7L4.7,27.3L0,30v5.5v49.1V90l4.7,2.7
			l42.5,24.5L52,120l4.7-2.7l42.5-24.5l4.7-2.7v-5.5V35.5V30l-4.7-2.7L56.7,2.7L52,0L52,0z"/>
		<rect x="28.4" y="36.4" class="st1" width="18.9" height="9.4"/>
		<rect x="28.4" y="55.3" class="st1" width="28.3" height="9.4"/>
		<rect x="47.2" y="74.2" class="st1" width="28.3" height="9.4"/>
		<rect x="56.7" y="36.4" class="st1" width="18.9" height="9.4"/>
		<rect x="66.1" y="55.3" class="st1" width="9.4" height="9.4"/>
		<rect x="28.4" y="74.2" class="st1" width="9.4" height="9.4"/>
	</g>
</g>
</svg>
